<?xml version="1.0" standalone="no"?>
<!DOCTYPE svg PUBLIC "-//W3C//DTD SVG 20010904//EN"
 "http://www.w3.org/TR/2001/REC-SVG-20010904/DTD/svg10.dtd">
<svg version="1.0" xmlns="http://www.w3.org/2000/svg"
 width="1000.000000pt" height="1000.000000pt" viewBox="0 0 1000.000000 1000.000000"
 preserveAspectRatio="xMidYMid meet">
<metadata>
Created by potrace 1.14, written by Peter Selinger 2001-2017
</metadata>
<g transform="translate(0.000000,1000.000000) scale(0.100000,-0.100000)"
fill="#000000" stroke="none">
<path d="M1218 7435 c-2 -2 -38 -6 -81 -10 -42 -3 -91 -10 -107 -15 -17 -5
-33 -9 -35 -9 -54 2 -257 -77 -360 -138 -263 -158 -450 -398 -549 -708 -29
-90 -61 -246 -73 -350 -15 -137 -7 -483 13 -588 35 -187 65 -282 134 -422 143
-290 379 -505 669 -609 197 -71 483 -95 703 -60 378 60 651 257 818 589 53
106 122 296 111 307 -3 3 -28 13 -56 21 -27 8 -143 45 -257 81 -114 36 -214
66 -222 66 -9 0 -20 -16 -27 -42 -55 -207 -138 -344 -263 -436 -204 -149 -510
-150 -729 -1 -18 12 -60 51 -95 86 -97 100 -175 280 -197 453 -4 29 -9 62 -12
74 -9 39 -11 420 -2 491 30 238 96 412 201 526 73 80 222 169 307 184 19 3 39
9 44 12 21 13 216 11 280 -3 142 -29 257 -99 343 -209 32 -41 94 -154 94 -173
0 -5 7 -25 15 -45 l14 -35 88 24 c48 13 99 25 113 28 31 5 271 62 322 76 34
10 36 12 28 38 -101 330 -267 537 -539 672 -78 39 -208 85 -271 95 -19 3 -42
8 -50 10 -44 12 -109 17 -232 20 -76 1 -139 1 -140 0z"/>
<path d="M2832 5973 l3 -1418 553 1 552 0 0 -213 c0 -163 3 -213 13 -214 6 0
219 -1 472 -2 l460 -2 1 -775 c1 -426 2 -778 3 -782 0 -4 119 -6 264 -5 l262
2 1 485 c1 267 2 490 3 497 1 8 24 12 74 11 39 0 86 0 103 1 l31 1 -1 185 c0
101 2 181 5 177 4 -5 114 -433 134 -522 2 -8 33 -132 70 -275 36 -143 68 -269
70 -280 3 -11 20 -79 38 -150 l33 -130 276 -2 276 -1 62 246 c34 136 63 254
65 262 2 8 26 104 54 212 28 108 53 207 55 220 5 22 43 172 141 555 25 101 48
191 50 200 2 10 33 133 69 273 l65 255 0 -1112 1 -1111 265 0 265 0 1 56 c3
344 -2 2766 -6 2771 -4 3 -197 6 -429 6 l-423 0 -62 -235 c-35 -129 -64 -242
-66 -250 -2 -12 -57 -219 -235 -895 -56 -211 -103 -390 -121 -463 -12 -45 -23
-81 -25 -80 -1 2 -14 48 -29 103 -14 55 -37 141 -50 190 -133 484 -195 736
-195 787 0 47 -3 56 -15 52 -8 -4 -15 -3 -15 0 0 4 -9 41 -21 84 -11 42 -22
84 -25 92 -2 8 -15 58 -29 110 -14 52 -27 102 -29 110 -14 53 -80 304 -92 346
l-14 50 -54 -1 c-43 -2 -55 2 -58 14 -2 9 -3 235 -3 504 l1 487 -25 1 c-14 1
-117 1 -228 1 l-202 0 -7 32 c-4 17 -9 37 -10 44 -1 8 -17 59 -35 115 -134
418 -440 708 -809 766 -36 6 -83 13 -105 17 -22 4 -340 9 -708 11 l-667 5 2
-1419z m1218 923 c14 -2 42 -7 63 -10 168 -25 319 -139 396 -298 39 -82 74
-194 85 -273 20 -142 25 -359 13 -550 -11 -195 -17 -211 -124 -369 -220 -323
-206 -308 -298 -333 -75 -20 -201 -27 -505 -27 l-275 -1 0 939 -1 938 311 -5
c170 -3 321 -8 335 -11z m835 -2131 c0 -85 -2 -156 -5 -156 -3 -1 -98 -2 -212
-3 -164 -1 -208 2 -208 12 0 7 19 21 43 31 159 69 235 118 322 207 33 34 60
63 60 63 0 1 0 -69 0 -154z"/>
<path d="M7993 5370 c-17 -5 -18 -60 -18 -1405 l0 -1400 998 -2 997 -1 0 239
0 239 -417 0 c-230 0 -550 0 -710 0 l-293 0 0 1165 0 1165 -67 1 c-38 0 -159
1 -270 2 -111 1 -210 0 -220 -3z"/>
</g>
</svg>
